<?xml version="1.0" encoding="utf-8"?>
<!-- Generator: Adobe Illustrator 19.1.0, SVG Export Plug-In . SVG Version: 6.00 Build 0)  -->
<!DOCTYPE svg PUBLIC "-//W3C//DTD SVG 1.1//EN" "http://www.w3.org/Graphics/SVG/1.1/DTD/svg11.dtd">
<svg version="1.1" id="Layer_1" xmlns="http://www.w3.org/2000/svg" xmlns:xlink="http://www.w3.org/1999/xlink" x="0px" y="0px"
	 viewBox="0 0 470 470" style="enable-background:new 0 0 470 470;" xml:space="preserve">
<style type="text/css">
	.st0{fill:#8A8A8D;}
	.st1{fill:#32A852;}
	.st2{fill:#FFFFFF;}
	.st3{fill:none;}
	.st4{fill:#3D4C88;}
	.st5{fill:#7386B5;}
	.st6{fill:#B3DCD7;}
	.st7{fill:#678D3E;}
	.st8{fill:#EA8735;}
	.st9{fill:#F8E80E;}
	.st10{fill:#7CC190;}
	.st11{fill:#6A457E;}
	.st12{fill:#D93887;}
	.st13{fill:#791D2C;}
	.st14{fill:#C8CDDE;}
	.st15{fill:#EFC0C0;}
</style>
<g>
	<g>
		<g>
			<path class="st0" d="M410.1,397.8c-8.2,0-11.9-5.3-11.9-10.5c0-6.5,3.9-9.6,12.1-9.6h15.5v3C425.8,389.4,418.9,397.8,410.1,397.8
				 M415.7,353.7h-16.2v6.6h15.9c7.6,0,10.4,2.7,10.5,10.4h-17.6c-10.9,0.8-17.4,6.9-17.4,16.4c0,9.8,7.7,17.3,17.8,17.3
				c10.7,0,15.4-5.6,17.1-8v6.6h7.5v-31.8C433.4,360.3,426.8,353.7,415.7,353.7"/>
			<path class="st0" d="M142.8,397.8c-10.3,0-17.8-8.1-17.8-19.2c0-11.1,7.5-19.2,17.8-19.2c10.4,0,17.9,8.1,17.9,19.2
				C160.7,389.7,153.2,397.8,142.8,397.8 M142.8,352.5c-14.5,0-25.5,11.2-25.5,26c0,14.8,11,25.9,25.5,25.9
				c14.6,0,25.6-11.1,25.6-25.9C168.4,363.7,157.4,352.5,142.8,352.5"/>
			<path class="st0" d="M234.9,397.8c-10.3,0-17.8-8.1-17.8-19.2c0-11.1,7.5-19.2,17.8-19.2c10.4,0,17.9,8.1,17.9,19.2
				C252.8,389.7,245.3,397.8,234.9,397.8 M234.9,352.5c-14.5,0-25.4,11.2-25.4,26c0,14.8,10.9,25.9,25.4,25.9
				c14.6,0,25.6-11.1,25.6-25.9C260.4,363.7,249.4,352.5,234.9,352.5"/>
			<path class="st0" d="M334.9,397.8c-10.3,0-17.8-8.1-17.8-19.2c0-11.1,7.5-19.2,17.8-19.2c10.4,0,17.9,8.1,17.9,19.2
				C352.8,389.7,345.3,397.8,334.9,397.8 M334.9,352.5c-14.5,0-25.5,11.2-25.5,26c0,14.8,10.9,25.9,25.5,25.9
				c14.6,0,25.6-11.1,25.6-25.9C360.5,363.7,349.5,352.5,334.9,352.5"/>
			<rect x="372.3" y="333.5" class="st0" width="7.5" height="69.6"/>
			<path class="st0" d="M303.8,354.8c-0.9-0.4-4-1.8-7-1.8l-0.3,0c-7.6,0-12.9,2.5-16.1,7.5v-6.6h-7.5v49.3h7.5v-31.4
				c1.6-7.5,9.5-11.3,14.1-11.3c0.1,0,0.2,0,0.4,0c2.9,0.1,5,0.7,6.3,1.1l0.4,0.2l2.6-6.7L303.8,354.8z"/>
			<path class="st0" d="M200.2,360.3v-6.4h-9.2v-20.4h-7.5v20.4h-8.2v6.4h8.2v32.5c0,7.2,3.8,10.7,11.6,10.7c1.5,0,3.5-0.1,4.7-0.1
				l0.4,0v-6.4l-0.4,0c-0.5,0-1.6,0-2.3,0c-3.9,0-6.5-0.3-6.5-4.3v-32.4H200.2z"/>
			<path class="st0" d="M88.2,352.5c-6.2,0-11.4,2.5-16.2,7.9c-2.6-5.1-7.7-7.9-14.6-7.9c-5.1,0-9.5,1.7-13.5,5.2v-3.9h-7.5v49.3
				h7.5v-37.3c4-4.2,8.2-6.3,12.7-6.3c6.4,0,10.3,4.1,10.3,11.1V403l7.4,0v-32.6c0-1.4-0.1-2.7-0.3-3.9c4.3-4.7,8.6-7,13.4-7
				c6.5,0,10.3,4.1,10.3,11.1V403l7.4,0v-32.6C105.1,359,98.9,352.5,88.2,352.5"/>
		</g>
		<path class="st0" d="M102.5,449.3c0-2.4-1.9-3.5-4.1-3.5c-2,0-3.6,0.9-5,1.8l-1-1.7c1.1-0.9,3.4-2.1,6.2-2.1
			c3.9,0,6.2,2.2,6.2,5.6v11.2h-2.2v-2c-0.9,1.6-3.2,2.5-5.1,2.5c-3.5,0-5.9-2.1-5.9-5c0-3,2.2-4.7,5.5-4.7h4c1.1,0,1.6-0.6,1.6-1.5
			V449.3z M102.5,454.7v-2.2c-0.4,0.5-1.3,0.6-2.1,0.6h-3.1c-2.4,0-3.5,1.2-3.5,2.9c0,1.4,1.1,3.1,3.8,3.1
			C100.1,459.1,102.5,457.7,102.5,454.7z"/>
		<path class="st0" d="M247.4,459.1c2.4,0,4.4-1.3,5.4-3.3l1.9,1.1c-1.4,2.5-4.2,4.1-7.3,4.1c-4.7,0-8.4-3.6-8.4-8.6
			c0-5,3.7-8.6,8.4-8.6c3.1,0,5.9,1.7,7.3,4.2l-1.9,1.1c-1-1.9-3-3.2-5.4-3.2c-3.6,0-6.1,2.9-6.1,6.6
			C241.2,456.2,243.8,459.1,247.4,459.1z"/>
		<path class="st0" d="M265.2,443.8c4.7,0,8.4,3.6,8.4,8.6c0,5-3.7,8.6-8.4,8.6c-4.7,0-8.4-3.6-8.4-8.6
			C256.8,447.5,260.6,443.8,265.2,443.8z M265.2,445.8c-3.6,0-6.1,2.9-6.1,6.6c0,3.7,2.5,6.6,6.1,6.6c3.7,0,6.1-2.9,6.1-6.6
			C271.4,448.7,268.9,445.8,265.2,445.8z"/>
		<path class="st0" d="M291,450.4v10.2h-2.2v-10.8c0-2.5-1.5-3.9-3.9-3.9c-1.9,0-3.6,1.1-5.2,2.9v11.9h-2.2v-16.3h2.2v2.4
			c1.4-1.7,3.1-2.8,5.5-2.8c2.8,0,4.6,1.2,5.3,3.2c1.8-2.1,3.7-3.2,6.1-3.2c3.8,0,5.8,2.3,5.8,5.9v10.8h-2.3v-10.8
			c0-2.5-1.6-3.9-3.8-3.9c-2,0-3.7,1.1-5.3,2.9C291,449.3,291,449.9,291,450.4z"/>
		<path class="st0" d="M309.4,457.5v9.5h-2.2v-22.7h2.2v3.2c0.9-2,3.4-3.6,6.2-3.6c4.7,0,8.2,3.6,8.2,8.6c0,5-3.5,8.6-8.3,8.6
			C312.8,461,310.3,459.5,309.4,457.5z M315.4,445.8c-3.6,0-6.2,2.9-6.2,6.6c0,3.7,2.5,6.6,6.2,6.6c3.6,0,6.1-2.9,6.1-6.6
			C321.5,448.7,319.1,445.8,315.4,445.8z"/>
		<path class="st0" d="M337.3,449.3c0-2.4-1.9-3.5-4.1-3.5c-2,0-3.6,0.9-5,1.8l-1-1.7c1.1-0.9,3.4-2.1,6.2-2.1
			c3.9,0,6.2,2.2,6.2,5.6v11.2h-2.2v-2c-0.9,1.6-3.2,2.5-5.1,2.5c-3.5,0-5.9-2.1-5.9-5c0-3,2.1-4.7,5.5-4.7h3.9
			c1.2,0,1.6-0.6,1.6-1.5V449.3z M337.3,454.7v-2.2c-0.4,0.5-1.3,0.6-2.1,0.6h-3c-2.3,0-3.5,1.2-3.5,2.9c0,1.4,1.1,3.1,3.8,3.1
			C335,459.1,337.3,457.7,337.3,454.7z"/>
		<path class="st0" d="M356,449.9c0-2.6-1.7-4-4.1-4c-2,0-3.9,1.1-5.4,2.9v11.9h-2.2v-16.3h2.2v2.4c1.5-1.8,3.4-2.8,5.8-2.8
			c3.8,0,5.9,2.3,5.9,5.9v10.8H356V449.9z"/>
		<path class="st0" d="M367.5,460.6h-0.8l-6.1-16.3h2.5l5.1,14.5l5.2-14.5h2.4l-7.2,19.2c-0.9,2.3-1.9,3.6-4.7,3.6h-1.9v-1.9h1.9
			c1.6,0,2.2-0.8,2.8-2.4L367.5,460.6z"/>
		<g>
			<path id="path2998_13_" class="st0" d="M145.6,447.4h-12.5v3.7h8.8c-0.4,5.2-4.7,7.4-8.8,7.4c-5.2,0-9.8-4.1-9.8-9.8
				c0-5.6,4.3-9.9,9.8-9.9c4.2,0,6.7,2.7,6.7,2.7l2.6-2.7c0,0-3.3-3.7-9.4-3.7c-7.7,0-13.7,6.5-13.7,13.5c0,6.9,5.6,13.6,13.9,13.6
				c7.3,0,12.6-5,12.6-12.3C145.9,448.3,145.6,447.4,145.6,447.4L145.6,447.4z"/>
			<path id="path3000_13_" class="st0" d="M155.8,444.7c-5.1,0-8.8,4-8.8,8.7c0,4.7,3.6,8.8,8.8,8.8c4.8,0,8.7-3.7,8.7-8.7
				C164.6,447.7,160,444.7,155.8,444.7L155.8,444.7z M155.9,448.1c2.5,0,4.9,2,4.9,5.3c0,3.2-2.4,5.3-4.9,5.3c-2.8,0-5-2.2-5-5.3
				C150.9,450.4,153.1,448.1,155.9,448.1L155.9,448.1z"/>
			<path id="path3005_13_" class="st0" d="M174.9,444.7c-5.1,0-8.8,4-8.8,8.7c0,4.7,3.6,8.8,8.8,8.8c4.8,0,8.7-3.7,8.7-8.7
				C183.7,447.7,179.1,444.7,174.9,444.7L174.9,444.7z M175,448.1c2.5,0,4.9,2,4.9,5.3c0,3.2-2.4,5.3-4.9,5.3c-2.8,0-5-2.2-5-5.3
				C170,450.4,172.1,448.1,175,448.1L175,448.1z"/>
			<path id="path3007_13_" class="st0" d="M193.6,444.7c-4.7,0-8.4,4.1-8.4,8.7c0,5.3,4.3,8.7,8.3,8.7c2.5,0,3.8-1,4.8-2.1v1.7
				c0,3-1.8,4.8-4.6,4.8c-2.7,0-4-2-4.5-3.1l-3.4,1.4c1.2,2.5,3.6,5.1,7.8,5.1c4.7,0,8.2-2.9,8.2-9.1v-15.7h-3.7v1.5
				C197.2,445.5,195.7,444.7,193.6,444.7L193.6,444.7z M194,448.1c2.3,0,4.7,2,4.7,5.3c0,3.4-2.4,5.3-4.7,5.3c-2.5,0-4.8-2-4.8-5.3
				C189.1,450.1,191.5,448.1,194,448.1L194,448.1z"/>
			<path id="path3011_13_" class="st0" d="M218.3,444.7c-4.4,0-8.1,3.5-8.1,8.7c0,5.5,4.1,8.8,8.6,8.8c3.7,0,6-2,7.3-3.8l-3-2
				c-0.8,1.2-2.1,2.4-4.3,2.4c-2.5,0-3.6-1.3-4.3-2.6l11.7-4.9l-0.6-1.4C224.4,447,221.7,444.7,218.3,444.7L218.3,444.7z M218.4,448
				c1.6,0,2.7,0.8,3.2,1.9l-7.8,3.3C213.5,450.6,215.9,448,218.4,448L218.4,448z"/>
			<path id="path3015_13_" class="st0" d="M204.5,461.6h3.8v-25.7h-3.8V461.6z"/>
		</g>
	</g>
	<circle class="st1" cx="229.2" cy="149.2" r="116.5"/>
	<path class="st2" d="M229.5,181.9l-0.4,0.3l-0.3-0.3l-32.4-108c-1.9-6.2-10.6-6.2-12.5,0l-42.4,139.9c-0.6,2.1,0.9,4.2,3.1,4.2h3.7
		c0.8,0,1.4-0.5,1.6-1.2c1.3-5.7,7.3-29.6,16.3-44.6c5.6-9.3,14.2-16.9,25.7-16.7c8,0.2,15,4.7,23.8,17c3.9,5.5,9.3,17.1,11.9,22.8
		c0.6,1.3,2.4,1.3,2.9,0c2.6-5.7,8.1-17.4,11.9-22.8c8.8-12.3,15.8-16.8,23.9-17c11.5-0.2,20.1,7.4,25.6,16.7
		c9,15,15,38.9,16.3,44.6c0.2,0.7,0.8,1.2,1.6,1.2h3.7c2.2,0,3.8-2.1,3.1-4.2L274.4,73.9c-1.9-6.2-10.6-6.2-12.5,0L229.5,181.9z"/>
	<g>
		<g>
			<path class="st3" d="M363.1,185.1c3.1-11.4,4.7-23.5,4.7-35.9s-1.7-24.4-4.7-35.9c-6.4-23.9-18.9-45.2-35.9-62.1
				c-17-17-38.3-29.5-62.1-35.9c-11.4-3.1-23.5-4.7-35.9-4.7c-12.4,0-24.4,1.7-35.9,4.7c-23.9,6.4-45.2,18.9-62.1,35.9
				c-17,17-29.5,38.3-35.9,62.1c-3.1,11.4-4.7,23.5-4.7,35.9s1.7,24.4,4.7,35.9c6.4,23.9,18.9,45.2,35.9,62.1
				c17,17,38.3,29.5,62.1,35.9c11.4,3.1,23.5,4.7,35.9,4.7c12.4,0,24.4-1.7,35.9-4.7c23.9-6.4,45.2-18.9,62.1-35.9
				C344.2,230.3,356.7,208.9,363.1,185.1z"/>
			<path class="st4" d="M327.2,51.2l7.5-7.5c-18.2-18.2-41.2-31.8-66.9-38.6l-2.7,10.2C288.9,21.7,310.3,34.2,327.2,51.2z"/>
			<path class="st5" d="M229.2,10.6c12.4,0,24.4,1.7,35.9,4.7l2.7-10.2C255.5,1.8,242.5,0,229.2,0c-13.4,0-26.3,1.8-38.6,5.1
				l2.7,10.2C204.8,12.2,216.8,10.6,229.2,10.6z"/>
			<path class="st6" d="M363.1,113.3l10.2-2.7c-6.9-25.7-20.4-48.6-38.6-66.9l-7.5,7.5C344.2,68.1,356.7,89.5,363.1,113.3z"/>
			<path class="st7" d="M327.2,247.2l7.5,7.5c18.2-18.2,31.8-41.2,38.6-66.9l-10.2-2.7C356.7,208.9,344.2,230.3,327.2,247.2z"/>
			<path class="st8" d="M265.1,283.1c-11.4,3.1-23.5,4.7-35.9,4.7c-12.4,0-24.4-1.7-35.9-4.7l-2.7,10.2c12.3,3.3,25.3,5.1,38.6,5.1
				c13.4,0,26.3-1.8,38.6-5.1L265.1,283.1z"/>
			<path class="st9" d="M265.1,283.1l2.7,10.2c25.7-6.9,48.6-20.4,66.9-38.6l-7.5-7.5C310.3,264.2,288.9,276.7,265.1,283.1z"/>
			<path class="st10" d="M367.8,149.2c0,12.4-1.7,24.4-4.7,35.9l10.2,2.7c3.3-12.3,5.1-25.3,5.1-38.6s-1.8-26.3-5.1-38.6l-10.2,2.7
				C366.1,124.8,367.8,136.8,367.8,149.2z"/>
			<path class="st11" d="M131.2,51.2l-7.5-7.5c-18.2,18.2-31.8,41.2-38.6,66.9l10.2,2.7C101.7,89.5,114.2,68.1,131.2,51.2z"/>
			<path class="st12" d="M90.6,149.2c0-12.4,1.7-24.4,4.7-35.9l-10.2-2.7c-3.3,12.3-5.1,25.3-5.1,38.6c0,13.4,1.8,26.3,5.1,38.6
				l10.2-2.7C92.2,173.6,90.6,161.6,90.6,149.2z"/>
			<path class="st13" d="M131.2,247.2l-7.5,7.5c18.2,18.2,41.2,31.8,66.9,38.6l2.7-10.2C169.4,276.7,148.1,264.2,131.2,247.2z"/>
			<path class="st14" d="M193.3,15.3l-2.7-10.2c-25.7,6.9-48.6,20.4-66.9,38.6l7.5,7.5C148.1,34.2,169.4,21.7,193.3,15.3z"/>
			<path class="st15" d="M95.3,185.1l-10.2,2.7c6.9,25.7,20.4,48.6,38.6,66.9l7.5-7.5C114.2,230.3,101.7,208.9,95.3,185.1z"/>
		</g>
		<path class="st3" d="M358,183.7c2.9-11,4.5-22.6,4.5-34.5c0-11.9-1.6-23.5-4.5-34.5c-6.1-22.9-18.2-43.5-34.5-59.8
			c-16.3-16.3-36.8-28.4-59.8-34.5c-11-2.9-22.6-4.5-34.5-4.5c-11.9,0-23.5,1.6-34.5,4.5c-22.9,6.1-43.5,18.2-59.8,34.5
			c-16.3,16.3-28.4,36.8-34.5,59.8c-2.9,11-4.5,22.6-4.5,34.5c0,11.9,1.6,23.5,4.5,34.5c6.1,22.9,18.2,43.5,34.5,59.8
			c16.3,16.3,36.8,28.4,59.8,34.5c11,2.9,22.6,4.5,34.5,4.5c11.9,0,23.5-1.6,34.5-4.5c22.9-6.1,43.5-18.2,59.8-34.5
			C339.8,227.2,351.9,206.7,358,183.7z"/>
		<path class="st4" d="M323.5,54.9l7.2-7.2c-17.6-17.6-39.6-30.6-64.3-37.2l-2.6,9.8C286.7,26.5,307.2,38.6,323.5,54.9z"/>
		<path class="st5" d="M229.2,15.9c11.9,0,23.5,1.6,34.5,4.5l2.6-9.8c-11.9-3.2-24.3-4.9-37.2-4.9s-25.3,1.7-37.2,4.9l2.6,9.8
			C205.7,17.5,217.2,15.9,229.2,15.9z"/>
		<path class="st6" d="M358,114.7l9.8-2.6c-6.6-24.7-19.6-46.8-37.2-64.3l-7.2,7.2C339.8,71.2,351.9,91.7,358,114.7z"/>
		<path class="st7" d="M323.5,243.5l7.2,7.2c17.6-17.6,30.6-39.6,37.2-64.3l-9.8-2.6C351.9,206.7,339.8,227.2,323.5,243.5z"/>
		<path class="st8" d="M263.7,278c-11,2.9-22.6,4.5-34.5,4.5c-11.9,0-23.5-1.6-34.5-4.5l-2.6,9.8c11.9,3.2,24.3,4.9,37.2,4.9
			s25.3-1.7,37.2-4.9L263.7,278z"/>
		<path class="st9" d="M263.7,278l2.6,9.8c24.7-6.6,46.8-19.6,64.3-37.2l-7.2-7.2C307.2,259.8,286.7,271.9,263.7,278z"/>
		<path class="st10" d="M362.5,149.2c0,11.9-1.6,23.5-4.5,34.5l9.8,2.6c3.2-11.9,4.9-24.3,4.9-37.2s-1.7-25.3-4.9-37.2l-9.8,2.6
			C360.9,125.7,362.5,137.3,362.5,149.2z"/>
		<path class="st11" d="M134.9,54.9l-7.2-7.2c-17.6,17.6-30.6,39.6-37.2,64.3l9.8,2.6C106.5,91.7,118.6,71.2,134.9,54.9z"/>
		<path class="st12" d="M95.8,149.2c0-11.9,1.6-23.5,4.5-34.5l-9.8-2.6c-3.2,11.9-4.9,24.3-4.9,37.2s1.7,25.3,4.9,37.2l9.8-2.6
			C97.4,172.7,95.8,161.1,95.8,149.2z"/>
		<path class="st13" d="M134.9,243.5l-7.2,7.2c17.6,17.6,39.6,30.6,64.3,37.2l2.6-9.8C171.7,271.9,151.2,259.8,134.9,243.5z"/>
		<path class="st14" d="M194.7,20.4l-2.6-9.8c-24.7,6.6-46.8,19.6-64.3,37.2l7.2,7.2C151.2,38.6,171.7,26.5,194.7,20.4z"/>
		<path class="st15" d="M100.4,183.7l-9.8,2.6c6.6,24.7,19.6,46.8,37.2,64.3l7.2-7.2C118.6,227.2,106.5,206.7,100.4,183.7z"/>
	</g>
</g>
</svg>
