<?xml version="1.0" encoding="utf-8"?>
<!-- Generator: Adobe Illustrator 19.1.0, SVG Export Plug-In . SVG Version: 6.00 Build 0)  -->
<!DOCTYPE svg PUBLIC "-//W3C//DTD SVG 1.1//EN" "http://www.w3.org/Graphics/SVG/1.1/DTD/svg11.dtd">
<svg version="1.1" id="Layer_1" xmlns="http://www.w3.org/2000/svg" xmlns:xlink="http://www.w3.org/1999/xlink" x="0px" y="0px"
	 viewBox="0 0 470 470" style="enable-background:new 0 0 470 470;" xml:space="preserve">
<style type="text/css">
	.st0{fill:#3B2314;}
	.st1{fill:#FFFFFF;}
	.st2{fill:none;stroke:#FFFFFF;stroke-width:13.6718;stroke-linecap:round;stroke-miterlimit:10;}
	.st3{fill:none;stroke:#FFFFFF;stroke-width:13.6718;stroke-linecap:round;stroke-linejoin:bevel;stroke-miterlimit:10;}
	.st4{fill:none;stroke:#3B2314;stroke-width:17.2857;stroke-linecap:round;stroke-miterlimit:10;}
</style>
<g>
	<g>
		<path class="st0" d="M132,270.8c-6.3-1.6-59.7-16.2-82.3-55.6c-10.8-18.9-12.8-40.3-5.8-63.8c8.1-27.1,19.4-47,33.6-59
			c12.8-10.9,25.6-13.2,34-13.2c1.1,0,2.2,0,3.2,0.1l-24.5-33l2-2.5c6.5-8.1,13.2-15.1,19.9-20.9c12.3-10.6,27.4-16.2,43.5-16.2
			c26.2,0,50.4,15.3,61.6,39c15.1,31.8,12.1,59-8.6,78.7c-40.1,38.1-45,58.5-45,58.7l0,0.1l0,0.1c-9.2,30.9,10.2,65.2,28.2,88.6
			c19.8,25.8,42.1,44.2,42.4,44.4l-4.5,6.8L132,270.8z"/>
		<path class="st0" d="M155.6,10.9c23.6,0,46.8,13.1,57.9,36.6c11.2,23.7,15.7,51.7-7.7,74c-41.5,39.4-46.2,60.7-46.2,60.7
			c-18.8,63,71.9,137.3,71.9,137.3l-97.9-52.7c0,0-111.8-27-85.7-114.4c17.8-59.7,47-69.2,63.7-69.2c7.7,0,12.8,2,12.8,2l-29-38.9
			c6.6-8.3,13.1-15,19.4-20.4C126.7,15.8,141.2,10.9,155.6,10.9 M155.6,2.7c-16.9,0-33.3,6.1-46.2,17.1c-6.9,6-13.8,13.2-20.5,21.5
			l-4,4.9l3.8,5.1l17.9,24c-8.8,0.8-20.3,4.2-31.8,13.9c-14.8,12.5-26.5,33-34.8,60.9c-7.4,24.6-5.3,47.2,6.1,67.1
			c10.4,18,27.9,33.2,52.2,45.1c15.3,7.5,28.4,11.3,32.1,12.3l97,52.2l9.1-13.6c-0.2-0.2-22.4-18.5-41.9-43.9
			c-17.3-22.6-36.1-55.6-27.4-84.7l0.1-0.4l0-0.1c0.2-0.7,1.7-5.6,7.4-14.4c5.6-8.7,16.5-23.2,36.5-42.2c22.1-21,25.4-49.9,9.5-83.4
			c-6-12.7-15.5-23.3-27.4-30.6C182,6.4,168.9,2.7,155.6,2.7L155.6,2.7z"/>
	</g>
	<circle class="st1" cx="146.7" cy="44.8" r="6.4"/>
	<path class="st2" d="M82.9,114.9c0,0-57.2,77.2-0.2,112.8"/>
	<g>
		<path class="st0" d="M220.6,316.4c0.2-0.2,22.6-18.7,42.4-44.5c17.9-23.4,37.3-57.7,28.1-88.5l0-0.1l0-0.1c0-0.2-5.4-21-45-58.7
			c-20.7-19.7-23.7-46.9-8.6-78.7c11.2-23.7,35.4-39,61.6-39c16.2,0,31.2,5.6,43.5,16.2c6.8,5.8,13.5,12.8,19.9,20.9l2,2.5l-24.5,33
			c1-0.1,2.1-0.1,3.2-0.1c8.4,0,21.2,2.3,34,13.2c14.2,12,25.5,31.8,33.6,59c7,23.5,5.1,45-5.8,63.8c-22.6,39.4-76,54-82.3,55.6
			l-97.5,52.4L220.6,316.4z"/>
		<path class="st0" d="M299.1,10.9c14.3,0,28.8,4.9,40.8,15.2c6.3,5.4,12.8,12.1,19.4,20.4l-29,38.9c0,0,5-2,12.8-2
			c16.7,0,45.8,9.5,63.7,69.2c26.1,87.4-85.7,114.4-85.7,114.4l-97.9,52.7c0,0,90.7-74.3,71.9-137.3c0,0-4.7-21.3-46.2-60.7
			c-23.4-22.3-19-50.3-7.7-74C252.3,24,275.5,10.9,299.1,10.9 M299.1,2.7c-13.4,0-26.5,3.7-37.9,10.7c-11.9,7.3-21.4,17.9-27.4,30.6
			c-15.9,33.5-12.6,62.4,9.5,83.4c20,19,30.9,33.5,36.5,42.2c5.7,8.9,7.2,13.8,7.4,14.4l0.1,0.4l0.1,0.1
			c8.7,29.2-10.1,62.2-27.4,84.7c-19.5,25.5-41.7,43.8-41.9,43.9l9.1,13.6l97-52.2c3.8-1,16.8-4.7,32.1-12.3
			c24.3-12,41.9-27.1,52.2-45.1c11.4-19.9,13.5-42.4,6.1-67.1c-8.3-27.9-20.1-48.4-34.8-60.9c-11.5-9.7-23-13.1-31.8-13.9l17.9-24
			l3.8-5.1l-4-4.9c-6.6-8.3-13.5-15.5-20.5-21.5C332.4,8.8,316,2.7,299.1,2.7L299.1,2.7z"/>
	</g>
	<circle class="st1" cx="307.9" cy="44.8" r="6.4"/>
	<path class="st3" d="M371.7,114.9c0,0,14.3,19.3,21.5,43.1c7.2,23.7,7.2,51.9-21.2,69.7"/>
	<path class="st4" d="M226.6,78.4c8.4,37.3-18,59,2.8,111.8c25.1,63.8-1.3,87.5-3.8,116.8"/>
	<g>
		<path class="st0" d="M54.6,370.8H42.2v-11.5h37.9v11.5H67.5V416H54.6V370.8z"/>
		<path class="st0" d="M82.8,359.3h12.8l4.7,35.5c0.4,2.7,0.3,6.3,0.3,6.3h0.4c0,0,0.1-3.7,0.5-6.3l5.2-35.5h12.1l5.1,35.5
			c0.4,2.7,0.6,6.3,0.6,6.3h0.3c0,0,0-3.7,0.4-6.3l4.6-35.5h12.8l-9.9,56.7h-14.8l-4.4-28.6c-0.6-3.6-0.6-6.7-0.6-6.7h-0.2
			c0,0-0.1,3-0.6,6.7l-4.3,28.6h-15L82.8,359.3z"/>
		<path class="st0" d="M148.7,359.3h13V416h-13V359.3z"/>
		<path class="st0" d="M172,359.3h13.7l9.7,26.2c1.6,3.8,2.8,9.4,2.8,9.4h0.3c0,0-0.7-5.9-0.7-9.5v-26.1H210V416h-13.6l-9.8-26.1
			c-1.5-3.9-2.7-9.5-2.7-9.5h-0.3c0,0,0.7,5.9,0.7,9.5V416H172V359.3z"/>
		<path class="st0" d="M237.5,359.3h28.2v11.5h-15.2v12.5h12.4v11.5h-12.4V416h-13V359.3z"/>
		<path class="st0" d="M273,359.3h13V416h-13V359.3z"/>
		<path class="st0" d="M296.2,359.3h13.7l9.7,26.2c1.6,3.8,2.8,9.4,2.8,9.4h0.3c0,0-0.7-5.9-0.7-9.5v-26.1h12.2V416h-13.6l-9.8-26.1
			c-1.5-3.9-2.7-9.5-2.7-9.5h-0.3c0,0,0.7,5.9,0.7,9.5V416h-12.3V359.3z"/>
		<path class="st0" d="M367.7,358.4c5,0,10.5,1.4,14.3,4.8l-5.4,11.2c-1.6-1.9-5.2-3.6-8.2-3.6c-8.5,0-12.8,7.6-12.8,16.5
			c0,9.3,4.6,17.5,12.6,17.5c3.9,0,6.7-1.8,9.1-3.8l5.4,11c-3.6,2.7-7.9,5.1-15.6,5.1c-15.8,0-24.9-12.4-24.9-29.2
			C342.2,370.6,351.7,358.4,367.7,358.4z"/>
		<path class="st0" d="M389.2,359.3h13v22.8h12.7v-22.8h12.9V416h-12.9v-22.4h-12.7V416h-13V359.3z"/>
		<path class="st0" d="M103.1,436.6h-2.3v-3.1h10.9c4.4,0,7.5,2.8,7.5,7.4c0,4.2-2.7,6.3-4.5,6.6v0.1c0,0,0.6,0.3,1.1,1.1l3,6
			c0.4,0.7,0.9,0.8,1.8,0.8h0.5v3.1h-1.7c-2,0-2.7-0.2-3.5-1.9l-3.4-6.8c-0.6-1.2-1.1-1.4-2.5-1.4h-3.3v10h-3.6V436.6z M111.2,445.6
			c2.7,0,4.3-1.7,4.3-4.6c0-2.8-1.6-4.4-4.2-4.4h-4.7v9H111.2z"/>
		<path class="st0" d="M151,433.1c7.3,0,12.9,5.6,12.9,12.8c0,7.4-5.7,13.2-12.9,13.2s-12.9-5.8-12.9-13.2
			C138.1,438.7,143.7,433.1,151,433.1z M151,455.8c5.1,0,9.2-4.3,9.2-9.8c0-5.4-4.1-9.5-9.2-9.5s-9.2,4.1-9.2,9.5
			C141.8,451.5,145.9,455.8,151,455.8z"/>
		<path class="st0" d="M180.7,455.6h0.5c0.6,0,1-0.1,1.2-0.8l7.9-21.3h3.7l7.9,21.3c0.2,0.6,0.6,0.8,1.2,0.8h0.5v3.1h-2
			c-1.8,0-2.3-0.4-2.9-2.1l-1.9-5.2h-9.2l-1.9,5.2c-0.6,1.6-1.2,2.1-3,2.1h-2V455.6z M195.8,448.5l-2.7-7.6c-0.5-1.3-1-3.5-1-3.5
			H192c0,0-0.5,2.2-1,3.5l-2.7,7.6H195.8z"/>
		<path class="st0" d="M222.9,452.8c0,0,2.6,3,6.3,3c2.3,0,4.3-1.4,4.3-3.7c0-5.3-12.1-4.4-12.1-12.3c0-3.8,3.3-6.7,8-6.7
			c2.7,0,7.1,1.2,7.1,4.6v2.1h-3.3v-1.2c0-1.3-1.9-2.3-3.9-2.3c-2.7,0-4.4,1.5-4.4,3.4c0,5.1,12.1,3.9,12.1,12.2c0,3.8-3,7.1-8,7.1
			c-5.3,0-8.3-3.7-8.3-3.7L222.9,452.8z"/>
		<path class="st0" d="M263.7,436.6h-5c-0.5,0-0.8,0.2-0.8,0.8v1.6h-3.2v-3.3c0-1.6,0.5-2.1,2.1-2.1h17.3c1.6,0,2.1,0.5,2.1,2.1v3.3
			h-3.2v-1.6c0-0.5-0.3-0.8-0.8-0.8h-5v22h-3.6V436.6z"/>
		<path class="st0" d="M289.7,455.6h0.5c0.6,0,1-0.1,1.2-0.8l7.9-21.3h3.7l7.9,21.3c0.2,0.6,0.6,0.8,1.2,0.8h0.5v3.1h-2
			c-1.8,0-2.3-0.4-2.9-2.1l-1.9-5.2h-9.2l-1.9,5.2c-0.6,1.6-1.2,2.1-3,2.1h-2V455.6z M304.9,448.5l-2.7-7.6c-0.5-1.3-1-3.5-1-3.5
			h-0.1c0,0-0.5,2.2-1,3.5l-2.7,7.6H304.9z"/>
		<path class="st0" d="M332.2,436.6h-2.3v-3.1h10.9c4.4,0,7.5,2.8,7.5,7.4c0,4.2-2.7,6.3-4.5,6.6v0.1c0,0,0.6,0.3,1.1,1.1l3,6
			c0.4,0.7,0.9,0.8,1.8,0.8h0.5v3.1h-1.7c-2,0-2.7-0.2-3.5-1.9l-3.4-6.8c-0.6-1.2-1.1-1.4-2.5-1.4h-3.3v10h-3.6V436.6z M340.4,445.6
			c2.7,0,4.3-1.7,4.3-4.6c0-2.8-1.6-4.4-4.2-4.4h-4.7v9H340.4z"/>
		<path class="st0" d="M374.1,447.7l-6.4-10.2c-0.5-0.7-0.8-0.9-1.5-0.9h-0.7v-3.1h1.6c1.7,0,2.4,0.3,3.4,1.9l3.8,6.3
			c0.8,1.4,1.5,2.8,1.5,2.8h0.1c0,0,0.7-1.4,1.5-2.8l3.8-6.3c1-1.7,1.7-1.9,3.4-1.9h1.6v3.1h-0.7c-0.7,0-1.1,0.1-1.6,0.9l-6.3,10.2
			v10.9h-3.6V447.7z"/>
	</g>
</g>
</svg>
