<?xml version="1.0" standalone="no"?>
<!DOCTYPE svg PUBLIC "-//W3C//DTD SVG 20010904//EN"
 "http://www.w3.org/TR/2001/REC-SVG-20010904/DTD/svg10.dtd">
<svg version="1.0" xmlns="http://www.w3.org/2000/svg"
 width="175.000000pt" height="175.000000pt" viewBox="0 0 175.000000 175.000000"
 preserveAspectRatio="xMidYMid meet">
<metadata>
Created by potrace 1.11, written by Peter Selinger 2001-2013
</metadata>
<g transform="translate(0.000000,175.000000) scale(0.100000,-0.100000)"
fill="#000000" stroke="none">
<path d="M60 1034 l0 -715 161 -160 160 -159 185 0 c101 0 184 2 184 4 0 2
-104 107 -230 232 l-231 229 26 48 c14 27 38 72 54 100 15 29 48 88 71 132 24
44 50 93 60 110 9 16 30 55 47 85 17 30 45 82 63 115 31 57 54 98 111 207 l26
49 467 -462 c256 -254 463 -465 460 -468 -3 -3 -106 -6 -229 -6 l-223 0 -46
-34 c-25 -19 -46 -38 -46 -43 0 -4 -5 -8 -11 -8 -7 0 -17 -6 -23 -13 -6 -8
-69 -61 -141 -118 -71 -57 -139 -112 -149 -121 -11 -10 -23 -18 -28 -18 -4 0
-8 -4 -8 -10 0 -7 160 -10 460 -10 l460 0 0 875 0 875 -815 0 -815 0 0 -716z"/>
<path d="M752 605 l3 -230 228 0 c125 0 227 2 227 4 0 2 -64 67 -142 144 -79
76 -182 178 -231 226 l-87 86 2 -230z"/>
</g>
</svg>
